<?xml version="1.0" encoding="UTF-8"?>
<svg xmlns="http://www.w3.org/2000/svg" xmlns:xlink="http://www.w3.org/1999/xlink" width="600pt" height="401pt" viewBox="0 0 600 401" version="1.1">
<defs>
<filter id="alpha" filterUnits="objectBoundingBox" x="0%" y="0%" width="100%" height="100%">
  <feColorMatrix type="matrix" in="SourceGraphic" values="0 0 0 0 1 0 0 0 0 1 0 0 0 0 1 0 0 0 1 0"/>
</filter>
<mask id="mask0">
  <g filter="url(#alpha)">
<rect x="0" y="0" width="600" height="401" style="fill:rgb(0%,0%,0%);fill-opacity:0.101961;stroke:none;"/>
  </g>
</mask>
<clipPath id="clip1">
  <rect width="600" height="401"/>
</clipPath>
<g id="surface6" clip-path="url(#clip1)">
<path style=" stroke:none;fill-rule:nonzero;fill:rgb(39.607843%,24.313725%,41.960784%);fill-opacity:1;" d="M 355.628906 64.460938 C 318.21875 63.160156 282.589844 51.070312 248.5625 37.84375 C 214.53125 24.617188 180.839844 9.957031 144.324219 2.949219 C 120.839844 -1.554688 93.984375 -2.191406 75.058594 10.410156 C 56.851562 22.5625 50.964844 43.480469 47.796875 62.90625 C 45.421875 77.527344 44.015625 92.90625 50.542969 106.59375 C 55.070312 116.09375 63.109375 124.078125 68.671875 133.179688 C 88.011719 164.84375 74.339844 203.890625 53.375 234.808594 C 43.550781 249.308594 32.140625 263.160156 24.550781 278.589844 C 16.960938 294.015625 13.449219 311.714844 20.085938 327.464844 C 26.671875 343.089844 42.351562 354.800781 59.335938 363.046875 C 93.839844 379.792969 134.480469 384.589844 174.144531 387.304688 C 261.902344 393.316406 350.132812 390.710938 438.121094 388.109375 C 470.6875 387.140625 503.394531 386.164062 535.429688 381.125 C 553.21875 378.324219 571.589844 373.878906 584.503906 363.1875 C 600.894531 349.570312 604.960938 326.511719 593.976562 309.441406 C 575.550781 280.804688 524.613281 273.6875 511.714844 242.957031 C 504.625 226.042969 511.90625 207.195312 522.207031 191.507812 C 544.3125 157.847656 581.359375 128.324219 583.3125 89.851562 C 584.652344 63.429688 566.84375 36.96875 539.304688 24.464844 C 510.4375 11.359375 470.417969 13.007812 449.132812 34.703125 C 427.191406 57.015625 388.660156 65.605469 355.628906 64.460938 Z M 355.628906 64.460938 "/>
</g>
<linearGradient id="linear0" gradientUnits="userSpaceOnUse" x1="320.96" y1="796.01" x2="320.96" y2="284.81" gradientTransform="matrix(0.578035,0,0,0.578644,-46.757225,-59.802814)">
<stop offset="0" style="stop-color:rgb(50.196078%,50.196078%,50.196078%);stop-opacity:0.25098;"/>
<stop offset="0.54" style="stop-color:rgb(50.196078%,50.196078%,50.196078%);stop-opacity:0.121569;"/>
<stop offset="1" style="stop-color:rgb(50.196078%,50.196078%,50.196078%);stop-opacity:0.101961;"/>
</linearGradient>
<mask id="mask1">
  <g filter="url(#alpha)">
<rect x="0" y="0" width="600" height="401" style="fill:rgb(0%,0%,0%);fill-opacity:0.101961;stroke:none;"/>
  </g>
</mask>
<clipPath id="clip2">
  <rect width="600" height="401"/>
</clipPath>
<g id="surface9" clip-path="url(#clip2)">
<path style=" stroke:none;fill-rule:nonzero;fill:rgb(0%,0%,0%);fill-opacity:1;" d="M 206.398438 333.96875 C 206.398438 321.1875 169.390625 310.824219 123.738281 310.824219 C 78.089844 310.824219 41.082031 321.1875 41.082031 333.96875 C 41.082031 346.753906 78.089844 357.117188 123.738281 357.117188 C 169.390625 357.117188 206.398438 346.753906 206.398438 333.96875 Z M 206.398438 333.96875 "/>
</g>
<mask id="mask2">
  <g filter="url(#alpha)">
<rect x="0" y="0" width="600" height="401" style="fill:rgb(0%,0%,0%);fill-opacity:0.101961;stroke:none;"/>
  </g>
</mask>
<clipPath id="clip3">
  <rect width="600" height="401"/>
</clipPath>
<g id="surface12" clip-path="url(#clip3)">
<path style=" stroke:none;fill-rule:nonzero;fill:rgb(0%,0%,0%);fill-opacity:1;" d="M 122.683594 175.925781 C 114.292969 184.667969 101.066406 186.632812 90.503906 180.703125 C 90.289062 179.96875 90.039062 179.242188 89.792969 178.539062 C 89.214844 176.863281 87.21875 173.675781 88.636719 172.238281 C 89.519531 171.332031 93.226562 170.867188 94.503906 170.277344 C 98.4375 168.460938 102.070312 165.832031 106.394531 164.972656 C 110.132812 164.226562 113.996094 164.925781 117.726562 165.699219 C 118.222656 165.773438 118.699219 165.945312 119.128906 166.203125 C 119.613281 166.617188 119.976562 167.15625 120.167969 167.765625 C 121.203125 170.359375 121.828125 173.222656 122.683594 175.925781 Z M 122.683594 175.925781 "/>
</g>
<mask id="mask3">
  <g filter="url(#alpha)">
<rect x="0" y="0" width="600" height="401" style="fill:rgb(0%,0%,0%);fill-opacity:0.0509804;stroke:none;"/>
  </g>
</mask>
<clipPath id="clip4">
  <rect width="600" height="401"/>
</clipPath>
<g id="surface15" clip-path="url(#clip4)">
<path style=" stroke:none;fill-rule:nonzero;fill:rgb(0%,0%,0%);fill-opacity:1;" d="M 191.207031 312.472656 C 193.132812 311.738281 195.253906 312.003906 197.316406 312.28125 C 203.960938 313.191406 210.699219 314.121094 216.855469 316.777344 C 219.746094 318.015625 222.496094 319.671875 224.449219 322.109375 C 226.183594 324.300781 227.195312 326.984375 228.15625 329.628906 L 230.375 335.71875 C 231.21875 338.03125 232.074219 340.394531 232.3125 342.851562 C 233.003906 350.136719 228.027344 357.003906 221.769531 360.789062 C 215.507812 364.574219 208.140625 365.921875 200.960938 367.335938 C 193.78125 368.746094 186.570312 370.308594 179.421875 371.964844 C 176.085938 372.828125 172.703125 373.496094 169.289062 373.960938 C 161.636719 374.828125 153.636719 373.550781 146.363281 376.082031 C 143.472656 377.097656 140.636719 378.601562 137.636719 379.300781 C 135.644531 379.71875 133.628906 380.027344 131.601562 380.222656 L 117.839844 381.792969 C 115.039062 382.167969 112.222656 382.386719 109.398438 382.441406 C 103.386719 382.441406 97.472656 381.019531 91.636719 379.597656 C 91.015625 379.488281 90.425781 379.25 89.902344 378.894531 C 88.976562 378.167969 88.773438 376.875 88.640625 375.707031 C 88.050781 370.535156 87.535156 365.355469 87.09375 360.171875 C 86.953125 358.488281 86.851562 356.664062 87.769531 355.246094 C 88.925781 353.511719 91.179688 352.964844 93.238281 352.632812 C 101.960938 351.203125 110.800781 350.589844 119.640625 350.796875 C 123 347.433594 128.539062 347.417969 132.9375 345.589844 C 134.554688 344.84375 136.121094 343.992188 137.625 343.039062 C 145.492188 338.441406 154.285156 335.660156 163.363281 334.894531 C 165.140625 334.839844 166.90625 334.589844 168.628906 334.144531 C 172.035156 333.085938 175.140625 330.203125 178.636719 330.910156 C 179.070312 329.710938 179.371094 328.109375 180.371094 327.285156 C 180.867188 326.863281 181.480469 326.582031 181.9375 326.128906 C 182.902344 325.152344 182.988281 323.613281 182.84375 322.246094 C 182.699219 320.882812 182.375 319.480469 182.726562 318.148438 C 182.875 317.644531 183.089844 317.164062 183.371094 316.71875 C 185.105469 313.722656 187.722656 312.183594 191.207031 312.472656 Z M 191.207031 312.472656 "/>
</g>
<mask id="mask4">
  <g filter="url(#alpha)">
<rect x="0" y="0" width="600" height="401" style="fill:rgb(0%,0%,0%);fill-opacity:0.101961;stroke:none;"/>
  </g>
</mask>
<clipPath id="clip5">
  <rect width="600" height="401"/>
</clipPath>
<g id="surface18" clip-path="url(#clip5)">
<path style=" stroke:none;fill-rule:nonzero;fill:rgb(0%,0%,0%);fill-opacity:1;" d="M 37.492188 350.820312 C 34.542969 353.636719 31.988281 356.835938 29.890625 360.332031 C 26.523438 366.105469 24.410156 372.519531 23.683594 379.160156 C 23.40625 381.585938 23.386719 384.03125 23.617188 386.457031 C 22.003906 386.011719 20.546875 385.128906 19.40625 383.902344 C 18.039062 382.355469 17.386719 380.308594 17.011719 378.28125 C 15.109375 367.902344 20.324219 356.59375 29.449219 351.3125 C 30.640625 350.542969 31.996094 350.058594 33.40625 349.90625 C 34.785156 349.898438 36.152344 350.199219 37.40625 350.785156 Z M 37.492188 350.820312 "/>
</g>
<mask id="mask5">
  <g filter="url(#alpha)">
<rect x="0" y="0" width="600" height="401" style="fill:rgb(0%,0%,0%);fill-opacity:0.101961;stroke:none;"/>
  </g>
</mask>
<clipPath id="clip6">
  <rect width="600" height="401"/>
</clipPath>
<g id="surface21" clip-path="url(#clip6)">
<path style=" stroke:none;fill-rule:nonzero;fill:rgb(0%,0%,0%);fill-opacity:1;" d="M 259.722656 393.917969 C 257.78125 397.523438 254.011719 399.765625 249.964844 400.691406 C 251.539062 397.632812 252.25 394.199219 252.015625 390.765625 C 251.671875 385.261719 249.253906 380.078125 246.171875 375.503906 C 244.277344 372.691406 242.121094 370.0625 239.734375 367.652344 C 237.894531 365.800781 235.636719 364.332031 233.660156 362.636719 C 235.21875 361.824219 236.882812 361.222656 238.601562 360.847656 C 244.15625 359.894531 249.304688 363.742188 253.496094 367.496094 C 254.9375 368.691406 256.207031 370.074219 257.285156 371.605469 C 258.4375 373.410156 259.050781 375.511719 259.59375 377.582031 C 261.105469 382.96875 262.371094 389 259.722656 393.917969 Z M 259.722656 393.917969 "/>
</g>
<mask id="mask6">
  <g filter="url(#alpha)">
<rect x="0" y="0" width="600" height="401" style="fill:rgb(0%,0%,0%);fill-opacity:0.101961;stroke:none;"/>
  </g>
</mask>
<clipPath id="clip7">
  <rect width="600" height="401"/>
</clipPath>
<g id="surface24" clip-path="url(#clip7)">
<path style=" stroke:none;fill-rule:nonzero;fill:rgb(0%,0%,0%);fill-opacity:1;" d="M 132.582031 161.90625 C 131.160156 161.730469 130.480469 160.167969 130.074219 158.878906 C 129.167969 155.980469 128.265625 153.085938 127.359375 150.199219 C 126.613281 147.808594 125.085938 144.890625 122.496094 145.160156 C 121.890625 145.222656 121.238281 145.460938 120.707031 145.160156 C 120.171875 144.859375 120.039062 144.109375 119.894531 143.492188 C 119.027344 139.671875 114.285156 138 110.203125 137.796875 C 108.515625 137.6875 106.824219 137.796875 105.167969 138.128906 C 99.996094 139.285156 95.519531 143.335938 90.230469 142.914062 C 88.867188 142.804688 87.457031 142.386719 86.183594 142.832031 C 84.238281 143.503906 83.539062 145.726562 83.105469 147.679688 L 79.097656 165.503906 C 78.828125 166.730469 78.238281 168.230469 76.929688 168.296875 C 76.351562 164.570312 75.058594 160.058594 71.214844 159.203125 C 70.484375 159.121094 69.765625 158.953125 69.074219 158.699219 C 68.570312 158.421875 68.179688 157.984375 67.960938 157.453125 C 67.855469 157.992188 67.734375 158.53125 67.664062 159.070312 C 67.492188 160.445312 67.796875 162.089844 69.074219 162.75 C 69.761719 163.007812 70.480469 163.175781 71.214844 163.253906 C 75.058594 164.109375 76.347656 168.621094 76.929688 172.355469 C 78.238281 172.28125 78.828125 170.78125 79.097656 169.558594 L 83.105469 151.730469 C 83.539062 149.800781 84.261719 147.558594 86.183594 146.882812 C 87.472656 146.4375 88.882812 146.855469 90.230469 146.96875 C 95.519531 147.402344 99.996094 143.3125 105.167969 142.183594 C 106.824219 141.851562 108.515625 141.738281 110.203125 141.847656 C 114.285156 142.050781 119.027344 143.730469 119.894531 147.542969 C 120.039062 148.160156 120.128906 148.902344 120.707031 149.210938 C 121.285156 149.515625 121.890625 149.253906 122.496094 149.210938 C 125.085938 148.949219 126.613281 151.863281 127.359375 154.25 C 128.261719 157.144531 129.164062 160.039062 130.074219 162.929688 C 130.480469 164.242188 131.160156 165.789062 132.582031 165.953125 C 133.894531 166.117188 135.011719 164.871094 135.207031 163.640625 C 135.296875 162.601562 135.179688 161.558594 134.859375 160.566406 C 134.441406 161.429688 133.542969 161.957031 132.582031 161.90625 Z M 132.582031 161.90625 "/>
<path style=" stroke:none;fill-rule:nonzero;fill:rgb(0%,0%,0%);fill-opacity:1;" d="M 68.109375 150.886719 C 67.816406 149.121094 66.375 147.75 65.59375 146.128906 C 65.09375 145.039062 64.804688 143.859375 64.738281 142.660156 C 64.738281 143.308594 64.683594 143.953125 64.675781 144.609375 C 64.675781 146.507812 64.757812 148.460938 65.59375 150.1875 C 66.238281 151.5 67.292969 152.65625 67.828125 153.996094 C 68.105469 152.984375 68.203125 151.929688 68.109375 150.886719 Z M 68.109375 150.886719 "/>
<path style=" stroke:none;fill-rule:nonzero;fill:rgb(0%,0%,0%);fill-opacity:1;" d="M 136.5625 138.574219 C 135.507812 143.621094 133.867188 148.757812 134.375 153.816406 C 134.707031 150.082031 135.792969 146.328125 136.5625 142.625 C 137.203125 139.8125 137.429688 136.921875 137.230469 134.042969 C 137.105469 135.566406 136.882812 137.078125 136.5625 138.574219 Z M 136.5625 138.574219 "/>
</g>
<mask id="mask7">
  <g filter="url(#alpha)">
<rect x="0" y="0" width="600" height="401" style="fill:rgb(0%,0%,0%);fill-opacity:0.8;stroke:none;"/>
  </g>
</mask>
<clipPath id="clip8">
  <rect width="600" height="401"/>
</clipPath>
<g id="surface27" clip-path="url(#clip8)">
<path style="fill:none;stroke-width:3;stroke-linecap:butt;stroke-linejoin:miter;stroke:rgb(24.705882%,23.921569%,33.72549%);stroke-opacity:1;stroke-miterlimit:10;" d="M 330.038047 290.489431 L 955.101914 290.489431 " transform="matrix(0.578035,0,0,0.578644,0,0)"/>
<path style="fill:none;stroke-width:3;stroke-linecap:butt;stroke-linejoin:miter;stroke:rgb(24.705882%,23.921569%,33.72549%);stroke-opacity:1;stroke-miterlimit:10;" d="M 466.456992 393.83268 C 466.456992 393.83268 496.346797 397.977611 480.871406 365.911779 C 465.389258 333.839197 522.871211 339.908077 522.871211 339.908077 " transform="matrix(0.578035,0,0,0.578644,-46.757225,-59.802814)"/>
<path style="fill:none;stroke-width:3;stroke-linecap:butt;stroke-linejoin:miter;stroke:rgb(24.705882%,23.921569%,33.72549%);stroke-opacity:1;stroke-miterlimit:10;" d="M 665.528633 393.83268 C 665.528633 393.83268 695.418437 389.687749 679.943047 421.760332 C 664.460898 453.832914 721.942852 447.757283 721.942852 447.757283 " transform="matrix(0.578035,0,0,0.578644,-46.757225,-59.802814)"/>
<path style="fill:none;stroke-width:3;stroke-linecap:butt;stroke-linejoin:miter;stroke:rgb(24.705882%,23.921569%,33.72549%);stroke-opacity:1;stroke-miterlimit:10;" d="M 952.16125 393.83268 C 952.16125 393.83268 922.25793 389.687749 937.746836 421.760332 C 953.2425 453.832914 895.747031 447.757283 895.747031 447.757283 " transform="matrix(0.578035,0,0,0.578644,-46.757225,-59.802814)"/>
<path style="fill:none;stroke-width:3;stroke-linecap:butt;stroke-linejoin:miter;stroke:rgb(24.705882%,23.921569%,33.72549%);stroke-opacity:1;stroke-miterlimit:10;" d="M 814.857031 344.400532 L 649.932617 344.400532 " transform="matrix(0.578035,0,0,0.578644,0,0)"/>
<path style=" stroke:none;fill-rule:nonzero;fill:rgb(39.607843%,24.313725%,41.960784%);fill-opacity:1;" d="M 201.324219 168.089844 C 201.324219 173.921875 196.601562 178.652344 190.773438 178.652344 C 184.949219 178.652344 180.226562 173.921875 180.226562 168.089844 C 180.226562 162.257812 184.949219 157.53125 190.773438 157.53125 C 196.601562 157.53125 201.324219 162.257812 201.324219 168.089844 Z M 201.324219 168.089844 "/>
<path style=" stroke:none;fill-rule:nonzero;fill:rgb(22.745098%,80%,42.352941%);fill-opacity:1;" d="M 266.207031 136.734375 C 266.207031 142.566406 261.484375 147.292969 255.660156 147.292969 C 249.832031 147.292969 245.109375 142.566406 245.109375 136.734375 C 245.109375 130.902344 249.832031 126.171875 255.660156 126.171875 C 261.484375 126.171875 266.207031 130.902344 266.207031 136.734375 Z M 266.207031 136.734375 "/>
<path style=" stroke:none;fill-rule:nonzero;fill:rgb(39.607843%,24.313725%,41.960784%);fill-opacity:1;" d="M 266.207031 168.089844 C 266.207031 173.921875 261.484375 178.652344 255.660156 178.652344 C 249.832031 178.652344 245.109375 173.921875 245.109375 168.089844 C 245.109375 162.257812 249.832031 157.53125 255.660156 157.53125 C 261.484375 157.53125 266.207031 162.257812 266.207031 168.089844 Z M 266.207031 168.089844 "/>
<path style=" stroke:none;fill-rule:nonzero;fill:rgb(39.607843%,24.313725%,41.960784%);fill-opacity:1;" d="M 308.082031 168.089844 C 308.082031 173.921875 303.359375 178.652344 297.53125 178.652344 C 291.707031 178.652344 286.984375 173.921875 286.984375 168.089844 C 286.984375 162.257812 291.707031 157.53125 297.53125 157.53125 C 303.359375 157.53125 308.082031 162.257812 308.082031 168.089844 Z M 308.082031 168.089844 "/>
<path style=" stroke:none;fill-rule:nonzero;fill:rgb(100%,39.607843%,51.764706%);fill-opacity:1;" d="M 381.273438 199.128906 C 381.273438 204.960938 376.546875 209.6875 370.722656 209.6875 C 364.894531 209.6875 360.171875 204.960938 360.171875 199.128906 C 360.171875 193.296875 364.894531 188.570312 370.722656 188.570312 C 376.546875 188.570312 381.273438 193.296875 381.273438 199.128906 Z M 381.273438 199.128906 "/>
<path style=" stroke:none;fill-rule:nonzero;fill:rgb(100%,39.607843%,51.764706%);fill-opacity:1;" d="M 436.578125 199.128906 C 436.578125 204.960938 431.855469 209.6875 426.027344 209.6875 C 420.203125 209.6875 415.480469 204.960938 415.480469 199.128906 C 415.480469 193.296875 420.203125 188.570312 426.027344 188.570312 C 431.855469 188.570312 436.578125 193.296875 436.578125 199.128906 Z M 436.578125 199.128906 "/>
<path style=" stroke:none;fill-rule:nonzero;fill:rgb(39.607843%,24.313725%,41.960784%);fill-opacity:1;" d="M 433.695312 168.089844 C 433.695312 173.921875 428.96875 178.652344 423.144531 178.652344 C 417.320312 178.652344 412.59375 173.921875 412.59375 168.089844 C 412.59375 162.257812 417.320312 157.53125 423.144531 157.53125 C 428.96875 157.53125 433.695312 162.257812 433.695312 168.089844 Z M 433.695312 168.089844 "/>
<path style=" stroke:none;fill-rule:nonzero;fill:rgb(39.607843%,24.313725%,41.960784%);fill-opacity:1;" d="M 559.960938 168.089844 C 559.960938 173.921875 555.238281 178.652344 549.410156 178.652344 C 543.585938 178.652344 538.859375 173.921875 538.859375 168.089844 C 538.859375 162.257812 543.585938 157.53125 549.410156 157.53125 C 555.238281 157.53125 559.960938 162.257812 559.960938 168.089844 Z M 559.960938 168.089844 "/>
<path style=" stroke:none;fill-rule:nonzero;fill:rgb(39.607843%,24.313725%,41.960784%);fill-opacity:1;" d="M 508.304688 168.089844 C 508.304688 173.921875 503.582031 178.652344 497.757812 178.652344 C 491.929688 178.652344 487.207031 173.921875 487.207031 168.089844 C 487.207031 162.257812 491.929688 157.53125 497.757812 157.53125 C 503.582031 157.53125 508.304688 162.257812 508.304688 168.089844 Z M 508.304688 168.089844 "/>
<path style=" stroke:none;fill-rule:nonzero;fill:rgb(39.607843%,24.313725%,41.960784%);fill-opacity:1;" d="M 173.050781 70.976562 L 208.445312 70.976562 L 208.445312 95.394531 L 173.050781 95.394531 Z M 173.050781 70.976562 "/>
<path style=" stroke:none;fill-rule:nonzero;fill:rgb(22.745098%,80%,42.352941%);fill-opacity:1;" d="M 238.09375 70.976562 L 273.484375 70.976562 L 273.484375 95.394531 L 238.09375 95.394531 Z M 238.09375 70.976562 "/>
<path style=" stroke:none;fill-rule:nonzero;fill:rgb(100%,39.607843%,51.764706%);fill-opacity:1;" d="M 352.878906 70.976562 L 388.273438 70.976562 L 388.273438 95.394531 L 352.878906 95.394531 Z M 352.878906 70.976562 "/>
</g>
<mask id="mask8">
  <g filter="url(#alpha)">
<rect x="0" y="0" width="600" height="401" style="fill:rgb(0%,0%,0%);fill-opacity:0.101961;stroke:none;"/>
  </g>
</mask>
<clipPath id="clip9">
  <rect width="600" height="401"/>
</clipPath>
<g id="surface30" clip-path="url(#clip9)">
<path style=" stroke:none;fill-rule:nonzero;fill:rgb(39.607843%,24.313725%,41.960784%);fill-opacity:1;" d="M 49.914062 173.222656 C 49.914062 173.222656 6.695312 155.03125 1.027344 187.855469 C 1.027344 187.855469 -1.925781 192.972656 2.183594 197.195312 C 2.183594 197.195312 3.070312 194.925781 7.242188 197.269531 C 8.734375 198.097656 10.316406 198.742188 11.960938 199.191406 C 14.179688 199.804688 16.535156 199.679688 18.675781 198.832031 C 18.675781 198.832031 32.890625 198.0625 44.84375 179.449219 C 44.84375 179.449219 49.972656 176.277344 50.226562 175.085938 L 41.660156 175.664062 C 41.660156 175.664062 42.316406 181.941406 38.769531 185.710938 C 38.769531 185.710938 41.914062 175.964844 40.40625 175.695312 C 40.097656 175.636719 35.878906 176.191406 35.878906 176.191406 C 35.878906 176.191406 36.972656 187.109375 31.253906 192.757812 C 31.253906 192.757812 36.5625 181.652344 34.253906 176.386719 L 27.929688 177.609375 C 27.929688 177.609375 29.664062 189.09375 23.410156 195.773438 C 23.410156 195.773438 28.554688 183.96875 26.566406 177.972656 L 20.515625 180.011719 C 20.515625 180.011719 21.972656 191.242188 16.738281 196.789062 C 16.738281 196.789062 21.304688 182.550781 19.15625 180.589844 C 19.15625 180.589844 13.710938 182.800781 12.550781 184.0625 C 12.550781 184.0625 13.410156 192.160156 10.085938 195.082031 C 10.085938 195.082031 12.128906 185.246094 11.117188 184.84375 C 11.117188 184.84375 4.792969 189.609375 2.859375 193.722656 C 2.859375 193.722656 5.265625 187.441406 10.324219 183.886719 C 10.324219 183.886719 6.074219 183.167969 2.808594 184.945312 C 2.808594 184.945312 4.996094 180.773438 11.855469 182.753906 C 11.855469 182.753906 16.9375 179.230469 17.953125 179.28125 C 17.953125 179.28125 11.460938 176.386719 6.773438 176.746094 C 6.773438 176.746094 11.804688 173.851562 19.539062 178.683594 L 25.578125 176.503906 C 25.578125 176.503906 17.195312 172.203125 13 172.222656 C 13 172.222656 18.582031 170.058594 27.144531 176.074219 L 33.328125 174.8125 C 33.328125 174.8125 26.394531 170.5625 21.714844 169.570312 C 21.714844 169.570312 27.324219 168.679688 35.117188 174.519531 L 39.339844 174.164062 C 39.339844 174.164062 34.226562 171.144531 32.675781 170.410156 C 31.128906 169.675781 31.195312 169.199219 31.195312 169.199219 C 34.871094 169.832031 38.300781 171.46875 41.105469 173.933594 C 41.105469 173.933594 49.878906 173.761719 49.914062 173.222656 Z M 49.914062 173.222656 "/>
</g>
<mask id="mask9">
  <g filter="url(#alpha)">
<rect x="0" y="0" width="600" height="401" style="fill:rgb(0%,0%,0%);fill-opacity:0.101961;stroke:none;"/>
  </g>
</mask>
<clipPath id="clip10">
  <rect width="600" height="401"/>
</clipPath>
<g id="surface33" clip-path="url(#clip10)">
<path style=" stroke:none;fill-rule:nonzero;fill:rgb(39.607843%,24.313725%,41.960784%);fill-opacity:1;" d="M 48.316406 140.609375 C 48.316406 140.609375 33.011719 105.15625 10.960938 121.417969 C 10.960938 121.417969 6.300781 122.769531 6.335938 127.609375 C 6.335938 127.609375 8.148438 126.761719 9.300781 130.542969 C 9.722656 131.882812 10.304688 133.167969 11.035156 134.367188 C 12 136 13.472656 137.269531 15.226562 137.984375 C 15.226562 137.984375 24.109375 145.632812 41.816406 141.390625 C 41.816406 141.390625 46.671875 142.425781 47.496094 141.871094 L 42.085938 137.316406 C 42.085938 137.316406 38.902344 141.425781 34.636719 141.621094 C 34.636719 141.621094 42.050781 137.628906 41.3125 136.605469 C 41.160156 136.398438 38.335938 134.328125 38.335938 134.328125 C 38.335938 134.328125 32.773438 141.433594 26.195312 141.542969 C 26.195312 141.542969 35.671875 137.964844 37.292969 133.527344 L 32.84375 130.632812 C 32.84375 130.632812 27.230469 138.453125 19.714844 138.855469 C 19.714844 138.855469 29.492188 134.777344 31.722656 130.078125 L 26.964844 127.839844 C 26.964844 127.839844 21.4375 135.363281 15.191406 135.644531 C 15.191406 135.644531 26.011719 129.789062 25.84375 127.398438 C 25.84375 127.398438 21.351562 125.605469 19.925781 125.710938 C 19.925781 125.710938 15.839844 131.003906 12.191406 130.855469 C 12.191406 130.855469 19.003906 126.171875 18.636719 125.355469 C 18.636719 125.355469 12.160156 124.582031 8.675781 125.9375 C 8.675781 125.9375 13.683594 123.574219 18.707031 124.351562 C 18.707031 124.351562 16.589844 121.496094 13.648438 120.703125 C 13.648438 120.703125 17.324219 119.472656 20.273438 124.554688 C 20.273438 124.554688 25.289062 125.363281 25.878906 125.964844 C 25.878906 125.964844 23.675781 120.53125 20.675781 118.082031 C 20.675781 118.082031 25.300781 119.242188 27.148438 126.515625 L 31.984375 128.660156 C 31.984375 128.660156 29.449219 121.324219 26.941406 118.945312 C 26.941406 118.945312 31.492188 120.84375 33.15625 129.304688 L 37.550781 132.074219 C 37.550781 132.074219 35.851562 125.59375 33.636719 122.335938 C 33.636719 122.335938 37.472656 125.011719 38.773438 132.921875 L 41.492188 135.117188 C 41.492188 135.117188 40.167969 130.410156 39.664062 129.089844 C 39.160156 127.769531 39.472656 127.527344 39.472656 127.527344 C 41.300781 130.007812 42.398438 132.949219 42.648438 136.023438 C 42.648438 136.023438 47.988281 140.90625 48.316406 140.609375 Z M 48.316406 140.609375 "/>
</g>
</defs>
<g id="surface1">
<use xlink:href="#surface6" mask="url(#mask0)"/>
<path style=" stroke:none;fill-rule:nonzero;fill:url(#linear0);" d="M 259.382812 376.980469 C 258.804688 374.886719 258.226562 372.769531 257.070312 370.945312 C 255.996094 369.398438 254.722656 368.003906 253.285156 366.796875 C 249.09375 362.988281 243.949219 359.125 238.394531 360.085938 C 236.675781 360.464844 235.015625 361.070312 233.457031 361.890625 C 232.648438 362.265625 231.832031 362.640625 231 362.960938 C 228.65625 363.941406 226.066406 364.167969 223.589844 363.609375 C 222.316406 363.265625 221.132812 362.652344 219.878906 362.269531 C 219.28125 362.09375 218.675781 361.960938 218.058594 361.878906 C 219.269531 361.335938 220.445312 360.714844 221.578125 360.019531 C 227.808594 356.203125 232.78125 349.296875 232.085938 341.914062 C 231.851562 339.433594 231 337.054688 230.15625 334.710938 L 227.9375 328.566406 C 226.976562 325.902344 225.984375 323.191406 224.230469 320.980469 C 222.285156 318.515625 219.507812 316.84375 216.640625 315.597656 C 210.484375 312.917969 203.757812 311.976562 197.117188 311.0625 L 196.652344 310.996094 L 196.652344 239.171875 C 196.652344 236.613281 194.582031 234.542969 192.027344 234.542969 L 183.300781 234.542969 C 182.914062 232.179688 182.53125 229.824219 182.144531 227.46875 C 181.046875 220.753906 179.90625 213.914062 176.816406 207.867188 C 174.792969 203.910156 171.570312 200.128906 167.230469 199.355469 C 166.378906 199.277344 165.539062 199.082031 164.738281 198.777344 C 163.46875 198.152344 162.773438 196.761719 161.796875 195.738281 C 159.277344 193.09375 155.179688 193.054688 151.804688 191.6875 C 148.820312 190.5 146.382812 188.265625 143.664062 186.550781 C 140.949219 184.832031 137.570312 183.609375 134.566406 184.726562 C 134.566406 184.945312 134.527344 185.164062 134.503906 185.378906 L 132.570312 184.488281 C 130.492188 183.523438 128.371094 182.53125 126.699219 180.949219 C 124.554688 178.921875 123.410156 176.238281 122.519531 173.382812 C 122.429688 173.089844 122.339844 172.804688 122.25 172.488281 C 125.941406 168.714844 128.445312 163.933594 129.4375 158.746094 L 129.90625 160.265625 C 130.011719 160.609375 130.136719 160.945312 130.277344 161.273438 C 130.515625 161.910156 130.914062 162.472656 131.433594 162.910156 C 131.582031 163.027344 131.746094 163.125 131.917969 163.195312 C 132.078125 163.257812 132.246094 163.300781 132.417969 163.320312 C 132.65625 163.351562 132.898438 163.335938 133.132812 163.269531 C 133.925781 163.023438 134.5625 162.433594 134.867188 161.660156 C 134.960938 161.433594 135.027344 161.199219 135.070312 160.957031 C 135.089844 160.808594 135.105469 160.664062 135.109375 160.515625 C 135.109375 160.46875 135.109375 160.421875 135.109375 160.375 C 135.109375 160.332031 135.109375 160.175781 135.109375 160.074219 C 135.109375 159.976562 135.109375 159.972656 135.109375 159.914062 C 135.109375 159.855469 135.109375 159.722656 135.082031 159.625 L 135.082031 159.472656 C 135.082031 159.359375 135.046875 159.242188 135.023438 159.132812 C 135 159.023438 135.023438 159.070312 135.023438 159.039062 C 134.996094 158.894531 134.960938 158.746094 134.929688 158.601562 C 134.929688 158.566406 134.929688 158.523438 134.929688 158.492188 C 134.929688 158.457031 134.878906 158.253906 134.851562 158.132812 C 134.820312 158.011719 134.808594 157.976562 134.792969 157.894531 L 134.792969 157.859375 C 134.734375 157.628906 134.683594 157.402344 134.628906 157.171875 C 134.210938 155.164062 134.101562 153.101562 134.3125 151.0625 C 134.65625 148.066406 135.210938 145.097656 135.964844 142.179688 L 136.085938 141.652344 C 136.132812 141.449219 136.179688 141.246094 136.21875 141.039062 C 136.3125 140.621094 136.40625 140.207031 136.492188 139.78125 L 136.699219 138.71875 L 136.855469 137.769531 L 136.855469 137.648438 C 137.179688 135.496094 137.246094 133.316406 137.058594 131.148438 C 136.792969 128.125 135.855469 125.257812 133.804688 122.980469 C 132.351562 121.363281 130.4375 120.171875 129.09375 118.476562 C 127.832031 116.890625 127.121094 114.9375 125.816406 113.378906 C 122.207031 109.070312 112.949219 105.746094 107.265625 105.167969 C 100.757812 104.507812 90.242188 106.175781 84.996094 110.023438 C 83.050781 111.441406 81.722656 113.496094 80.371094 115.4375 C 77.882812 119.054688 75.0625 122.667969 71.082031 124.699219 C 69.578125 125.460938 67.855469 126.039062 66.855469 127.371094 C 66.261719 128.273438 65.875 129.296875 65.726562 130.367188 C 64.960938 134.136719 64.5625 137.96875 64.539062 141.8125 L 64.539062 143.261719 C 64.550781 144.703125 64.855469 146.125 65.4375 147.445312 C 65.53125 147.640625 65.636719 147.832031 65.746094 148.023438 L 65.816406 148.144531 C 66.515625 149.144531 67.132812 150.199219 67.664062 151.296875 C 67.796875 151.605469 67.890625 151.929688 67.949219 152.257812 C 68.046875 153.105469 67.992188 153.964844 67.785156 154.792969 C 67.785156 154.921875 67.734375 155.046875 67.710938 155.175781 L 67.660156 155.421875 C 67.660156 155.511719 67.660156 155.597656 67.613281 155.679688 C 67.566406 155.925781 67.527344 156.175781 67.492188 156.417969 C 67.402344 157.089844 67.445312 157.769531 67.617188 158.421875 C 67.777344 159.15625 68.246094 159.789062 68.902344 160.15625 C 69.230469 160.316406 69.582031 160.425781 69.941406 160.480469 C 70.304688 160.542969 70.675781 160.585938 71.035156 160.667969 C 71.496094 160.769531 71.941406 160.9375 72.359375 161.15625 C 72.757812 161.351562 73.132812 161.589844 73.472656 161.875 C 73.640625 162.027344 73.800781 162.191406 73.953125 162.363281 C 74.257812 162.710938 74.535156 163.085938 74.773438 163.484375 C 74.898438 163.6875 75.011719 163.898438 75.121094 164.109375 C 75.535156 164.945312 75.867188 165.824219 76.109375 166.722656 C 76.261719 167.261719 76.386719 167.804688 76.496094 168.351562 C 76.550781 168.59375 76.59375 168.835938 76.636719 169.074219 C 76.675781 169.3125 76.714844 169.554688 76.75 169.792969 C 76.910156 169.78125 77.066406 169.75 77.214844 169.699219 C 78.0625 169.390625 78.539062 168.402344 78.804688 167.441406 C 78.851562 167.28125 78.890625 167.125 78.925781 166.96875 C 79.058594 166.390625 79.195312 165.753906 79.328125 165.144531 C 81.609375 169.988281 85.28125 174.039062 89.878906 176.777344 C 90.039062 177.257812 90.195312 177.730469 90.335938 178.214844 C 91.09375 180.835938 91.457031 183.582031 90.144531 185.871094 C 89.207031 187.496094 87.636719 188.5 85.878906 189.191406 C 85.625 188.855469 85.300781 188.578125 84.925781 188.382812 C 83.40625 187.621094 81.578125 188.546875 80.300781 189.683594 C 77.988281 191.78125 76.105469 194.78125 73.0625 195.472656 C 71.964844 195.726562 70.75 195.675781 69.839844 196.34375 C 69.234375 196.914062 68.726562 197.578125 68.339844 198.3125 C 67 200.238281 64.773438 201.351562 62.429688 201.265625 C 61.371094 201.210938 60.117188 200.96875 59.394531 201.742188 C 58.855469 202.324219 58.816406 203.238281 58.238281 203.785156 C 57.460938 204.550781 56.191406 204.179688 55.109375 204.132812 C 53.050781 204.046875 51.140625 205.378906 49.964844 207.085938 C 48.792969 208.792969 48.230469 210.835938 47.652344 212.871094 L 47.652344 212.90625 C 47.503906 213.015625 47.363281 213.132812 47.230469 213.257812 C 46.671875 213.855469 46.234375 214.5625 45.953125 215.332031 C 41.277344 225.984375 38.519531 237.382812 37.804688 248.996094 C 37.816406 249.5625 37.6875 250.121094 37.433594 250.628906 C 37.175781 250.957031 36.890625 251.269531 36.582031 251.554688 C 36.027344 252.234375 35.773438 253.109375 35.875 253.980469 C 35.976562 254.855469 36.425781 255.648438 37.121094 256.183594 C 37.289062 255.882812 37.496094 255.605469 37.738281 255.359375 C 37.675781 255.628906 37.617188 255.886719 37.578125 256.125 C 37.347656 257.8125 37.324219 259.523438 37.515625 261.21875 C 38.0625 269.257812 38.613281 277.289062 39.171875 285.316406 C 39.328125 287.589844 39.484375 289.859375 39.695312 292.128906 C 40.097656 296.519531 40.675781 300.890625 41.429688 305.246094 C 41.460938 305.441406 41.503906 305.644531 41.554688 305.824219 C 36.84375 307.324219 32.652344 310.03125 30.890625 314.550781 C 30.277344 316.113281 30 317.8125 29.25 319.3125 C 28.421875 320.957031 27.0625 322.269531 26.160156 323.878906 C 24.605469 326.644531 24.539062 330.035156 25.105469 333.136719 C 26.195312 339.183594 29.460938 344.589844 33.773438 348.984375 C 33.582031 348.984375 33.386719 348.984375 33.195312 348.984375 C 31.789062 349.140625 30.433594 349.628906 29.25 350.402344 C 20.128906 355.738281 14.914062 367.183594 16.816406 377.632812 C 17.191406 379.675781 17.84375 381.75 19.207031 383.304688 C 20.34375 384.542969 21.800781 385.4375 23.417969 385.886719 C 24.425781 386.191406 25.46875 386.382812 26.519531 386.464844 C 33.628906 387.042969 40.515625 383.746094 47.640625 383.46875 C 50.003906 383.429688 52.363281 383.539062 54.710938 383.796875 C 58.144531 384.082031 61.582031 384.265625 65.027344 384.339844 C 70.628906 384.472656 73.78125 382.980469 77.351562 378.792969 C 78.230469 377.75 78.964844 376.59375 79.53125 375.355469 C 82.570312 375.179688 85.929688 374.914062 88.359375 374.71875 L 88.394531 375.054688 C 88.527344 376.210938 88.726562 377.542969 89.652344 378.269531 C 90.171875 378.628906 90.765625 378.871094 91.386719 378.984375 C 97.226562 380.417969 103.132812 381.875 109.144531 381.875 C 111.964844 381.820312 114.78125 381.601562 117.578125 381.226562 L 128.140625 380.007812 C 131.214844 380.398438 134.253906 381.058594 137.214844 381.984375 C 140.265625 383.023438 143.117188 384.5625 146.097656 385.78125 C 153.035156 388.59375 160.492188 389.601562 167.878906 390.585938 C 169.140625 390.753906 170.582031 390.867188 171.515625 390.003906 C 172.714844 388.847656 172.316406 386.914062 171.976562 385.296875 C 171.839844 384.628906 171.734375 383.964844 171.652344 383.292969 C 176.636719 384.609375 181.515625 386.304688 186.242188 388.363281 L 187.070312 388.726562 C 187.3125 389.988281 188.472656 390.996094 189.589844 392.355469 C 189.957031 392.929688 190.382812 393.460938 190.867188 393.941406 C 191.417969 394.300781 192.046875 394.523438 192.699219 394.601562 C 200.496094 396.054688 208.460938 396.414062 216.359375 395.671875 C 217.976562 395.449219 219.609375 395.394531 221.238281 395.503906 C 222.433594 395.664062 223.613281 395.929688 224.761719 396.296875 L 231.449219 398.214844 C 236.382812 399.628906 241.429688 401.058594 246.542969 400.738281 C 247.582031 400.675781 248.609375 400.523438 249.625 400.292969 C 253.671875 399.355469 257.4375 397.09375 259.382812 393.453125 C 262.128906 388.507812 260.859375 382.417969 259.382812 376.980469 Z M 259.382812 376.980469 "/>
<path style=" stroke:none;fill-rule:nonzero;fill:rgb(98.431373%,74.509804%,74.509804%);fill-opacity:1;" d="M 72.265625 375.851562 C 71.046875 373.074219 69.890625 369.878906 71.109375 367.101562 C 71.90625 365.46875 73.273438 364.179688 74.953125 363.488281 C 76.617188 362.808594 78.367188 362.375 80.15625 362.203125 C 85.765625 361.464844 91.441406 361.386719 97.070312 361.96875 C 97.480469 365.222656 96.613281 368.519531 95.867188 371.664062 C 95.191406 374.554688 94.804688 374.984375 91.820312 375.132812 C 89.890625 375.238281 72.722656 376.875 72.265625 375.851562 Z M 72.265625 375.851562 "/>
<path style=" stroke:none;fill-rule:nonzero;fill:rgb(27.45098%,26.27451%,32.54902%);fill-opacity:1;" d="M 206.398438 333.96875 C 206.398438 321.1875 169.390625 310.824219 123.738281 310.824219 C 78.089844 310.824219 41.082031 321.1875 41.082031 333.96875 C 41.082031 346.753906 78.089844 357.117188 123.738281 357.117188 C 169.390625 357.117188 206.398438 346.753906 206.398438 333.96875 Z M 206.398438 333.96875 "/>
<use xlink:href="#surface9" mask="url(#mask1)"/>
<path style=" stroke:none;fill-rule:nonzero;fill:rgb(98.431373%,74.509804%,74.509804%);fill-opacity:1;" d="M 138.5625 211.785156 C 135.726562 217.265625 131.023438 221.542969 125.300781 223.84375 C 121.921875 225.074219 118.367188 225.75 114.773438 225.84375 C 110.851562 226.023438 106.84375 225.769531 103.15625 224.425781 C 98.207031 222.632812 94.097656 218.964844 91.015625 214.6875 C 87.9375 210.414062 85.816406 205.527344 83.972656 200.605469 C 83 198.039062 82.074219 195.308594 82.53125 192.601562 C 85.507812 191.925781 88.769531 190.929688 90.304688 188.285156 C 91.617188 186.015625 91.253906 183.296875 90.496094 180.703125 C 90.285156 179.96875 90.035156 179.242188 89.785156 178.539062 C 89.207031 176.863281 87.214844 173.675781 88.628906 172.238281 C 89.515625 171.332031 93.21875 170.867188 94.496094 170.277344 C 98.433594 168.460938 102.0625 165.832031 106.386719 164.972656 C 110.128906 164.226562 113.988281 164.925781 117.722656 165.699219 C 118.21875 165.773438 118.695312 165.945312 119.121094 166.203125 C 119.609375 166.617188 119.96875 167.15625 120.160156 167.765625 C 121.226562 170.359375 121.851562 173.222656 122.707031 175.925781 C 123.59375 178.753906 124.738281 181.410156 126.882812 183.417969 C 128.554688 184.988281 130.683594 185.96875 132.761719 186.925781 L 137.882812 189.273438 C 138.796875 189.617188 139.621094 190.152344 140.304688 190.84375 C 140.976562 191.765625 141.375 192.855469 141.460938 193.992188 C 142.378906 200.078125 141.363281 206.304688 138.5625 211.785156 Z M 138.5625 211.785156 "/>
<use xlink:href="#surface12" mask="url(#mask2)"/>
<path style=" stroke:none;fill-rule:nonzero;fill:rgb(98.431373%,74.509804%,74.509804%);fill-opacity:1;" d="M 130.097656 156.328125 C 130.097656 171.027344 118.195312 182.945312 103.507812 182.945312 C 88.824219 182.945312 76.917969 171.027344 76.917969 156.328125 C 76.917969 141.625 88.824219 129.707031 103.507812 129.707031 C 118.195312 129.707031 130.097656 141.625 130.097656 156.328125 Z M 130.097656 156.328125 "/>
<path style=" stroke:none;fill-rule:nonzero;fill:rgb(39.607843%,24.313725%,41.960784%);fill-opacity:1;" d="M 184.519531 242.710938 L 182.335938 229.460938 C 181.230469 222.8125 180.09375 216.035156 177.003906 210.046875 C 174.976562 206.125 171.757812 202.386719 167.417969 201.609375 C 166.5625 201.535156 165.71875 201.339844 164.917969 201.03125 C 163.648438 200.417969 162.953125 199.042969 161.976562 198.023438 C 159.457031 195.40625 155.351562 195.367188 151.976562 194.035156 C 148.996094 192.878906 146.554688 190.652344 143.839844 188.949219 C 141.121094 187.25 137.738281 186.058594 134.734375 187.144531 C 134.25 192.324219 133.734375 197.617188 131.539062 202.335938 C 128.640625 208.550781 123.097656 213.128906 116.445312 214.785156 C 109.796875 216.445312 102.753906 215.007812 97.285156 210.875 C 92.132812 206.992188 88.832031 201.003906 87.292969 194.738281 C 86.917969 193.210938 86.492188 191.457031 85.085938 190.753906 C 83.566406 189.992188 81.738281 190.917969 80.460938 192.039062 C 78.148438 194.117188 76.261719 197.089844 73.21875 197.792969 C 72.121094 198.046875 70.90625 197.996094 69.996094 198.660156 C 69.386719 199.21875 68.878906 199.878906 68.492188 200.609375 C 67.140625 202.523438 64.917969 203.621094 62.578125 203.539062 C 61.519531 203.484375 60.265625 203.242188 59.542969 204.011719 C 59.003906 204.589844 58.964844 205.492188 58.386719 206.03125 C 57.605469 206.789062 56.339844 206.417969 55.253906 206.378906 C 53.195312 206.292969 51.285156 207.613281 50.105469 209.273438 C 48.925781 210.933594 48.371094 212.988281 47.792969 214.976562 C 54.109375 229.0625 59.890625 243.164062 66.207031 257.246094 C 66.503906 257.777344 66.660156 258.375 66.664062 258.984375 C 66.539062 259.613281 66.269531 260.207031 65.878906 260.71875 C 62.78125 265.703125 62.878906 271.96875 63.21875 277.824219 C 63.5625 283.679688 63.976562 289.867188 61.363281 295.113281 C 60.652344 296.554688 59.726562 297.875 59.050781 299.316406 C 57.46875 302.578125 56.894531 313.015625 57.820312 316.523438 L 188.503906 316.523438 C 186.011719 309.667969 186.960938 295.90625 187.480469 288.628906 C 187.84375 283.535156 186.902344 278.449219 186.496094 273.355469 C 185.613281 262.957031 186.238281 253.09375 184.519531 242.710938 Z M 184.519531 242.710938 "/>
<path style=" stroke:none;fill-rule:nonzero;fill:rgb(98.431373%,74.509804%,74.509804%);fill-opacity:1;" d="M 37.78125 257.871094 C 37.550781 259.546875 37.527344 261.242188 37.710938 262.925781 L 39.371094 286.804688 C 39.527344 289.054688 39.683594 291.300781 39.890625 293.546875 C 40.289062 297.902344 40.882812 302.226562 41.625 306.542969 C 41.660156 307.820312 42.71875 308.824219 43.996094 308.792969 C 51.304688 310.34375 58.859375 310.28125 66.324219 309.859375 C 77.710938 309.222656 89.082031 307.769531 100.484375 308.019531 C 103.421875 308.082031 106.84375 308.019531 108.625 305.703125 C 110.40625 303.386719 109.371094 299.644531 107.046875 297.777344 C 104.722656 295.90625 101.566406 295.460938 98.582031 295.460938 C 94.636719 295.421875 90.6875 295.980469 86.75 295.75 C 83.140625 295.535156 79.605469 294.664062 76.105469 293.789062 L 66.277344 291.339844 C 66.652344 288.359375 67.785156 285.554688 68.859375 282.726562 C 70.792969 277.707031 72.59375 272.523438 72.628906 267.148438 C 72.664062 261.773438 70.640625 256.121094 66.242188 253.039062 C 62.625 250.511719 57.964844 250.042969 53.554688 250.148438 C 50.347656 250.238281 44.804688 249.46875 41.871094 250.726562 C 39.554688 251.746094 38.214844 255.597656 37.78125 257.871094 Z M 37.78125 257.871094 "/>
<path style=" stroke:none;fill-rule:nonzero;fill:rgb(27.45098%,26.27451%,32.54902%);fill-opacity:1;" d="M 191.207031 312.472656 C 193.132812 311.738281 195.253906 312.003906 197.316406 312.28125 C 203.960938 313.191406 210.699219 314.121094 216.855469 316.777344 C 219.746094 318.015625 222.496094 319.671875 224.449219 322.109375 C 226.183594 324.300781 227.195312 326.984375 228.15625 329.628906 L 230.375 335.71875 C 231.21875 338.03125 232.074219 340.394531 232.3125 342.851562 C 233.003906 350.136719 228.027344 357.003906 221.769531 360.789062 C 215.507812 364.574219 208.140625 365.921875 200.960938 367.335938 C 193.78125 368.746094 186.570312 370.308594 179.421875 371.964844 C 176.085938 372.828125 172.703125 373.496094 169.289062 373.960938 C 161.636719 374.828125 153.636719 373.550781 146.363281 376.082031 C 143.472656 377.097656 140.636719 378.601562 137.636719 379.300781 C 135.644531 379.71875 133.628906 380.027344 131.601562 380.222656 L 117.839844 381.792969 C 115.039062 382.167969 112.222656 382.386719 109.398438 382.441406 C 103.386719 382.441406 97.472656 381.019531 91.636719 379.597656 C 91.015625 379.488281 90.425781 379.25 89.902344 378.894531 C 88.976562 378.167969 88.773438 376.875 88.640625 375.707031 C 88.050781 370.535156 87.535156 365.355469 87.09375 360.171875 C 86.953125 358.488281 86.851562 356.664062 87.769531 355.246094 C 88.925781 353.511719 91.179688 352.964844 93.238281 352.632812 C 101.960938 351.203125 110.800781 350.589844 119.640625 350.796875 C 123 347.433594 128.539062 347.417969 132.9375 345.589844 C 134.554688 344.84375 136.121094 343.992188 137.625 343.039062 C 145.492188 338.441406 154.285156 335.660156 163.363281 334.894531 C 165.140625 334.839844 166.90625 334.589844 168.628906 334.144531 C 172.035156 333.085938 175.140625 330.203125 178.636719 330.910156 C 179.070312 329.710938 179.371094 328.109375 180.371094 327.285156 C 180.867188 326.863281 181.480469 326.582031 181.9375 326.128906 C 182.902344 325.152344 182.988281 323.613281 182.84375 322.246094 C 182.699219 320.882812 182.375 319.480469 182.726562 318.148438 C 182.875 317.644531 183.089844 317.164062 183.371094 316.71875 C 185.105469 313.722656 187.722656 312.183594 191.207031 312.472656 Z M 191.207031 312.472656 "/>
<use xlink:href="#surface15" mask="url(#mask3)"/>
<path style=" stroke:none;fill-rule:nonzero;fill:rgb(24.705882%,23.921569%,33.72549%);fill-opacity:1;" d="M 77.582031 379.429688 C 74.003906 383.578125 70.855469 385.058594 65.253906 384.925781 C 61.808594 384.84375 58.367188 384.664062 54.929688 384.386719 C 52.582031 384.132812 50.21875 384.023438 47.855469 384.058594 C 40.722656 384.335938 33.839844 387.605469 26.722656 387.03125 C 25.671875 386.949219 24.628906 386.753906 23.617188 386.453125 C 22.003906 386.007812 20.546875 385.121094 19.40625 383.894531 C 18.039062 382.351562 17.386719 380.300781 17.011719 378.277344 C 15.109375 367.894531 20.324219 356.589844 29.449219 351.304688 C 30.640625 350.535156 31.996094 350.054688 33.40625 349.898438 C 34.785156 349.894531 36.152344 350.195312 37.40625 350.78125 L 37.492188 350.8125 C 41.199219 352.339844 44.566406 354.59375 47.398438 357.433594 C 47.828125 357.925781 48.339844 358.339844 48.914062 358.65625 C 49.484375 358.871094 50.089844 358.984375 50.699219 358.992188 L 58.292969 359.472656 C 59.582031 359.507812 60.859375 359.6875 62.109375 359.996094 C 63.488281 360.480469 64.828125 361.058594 66.121094 361.734375 C 70.207031 363.5625 74.738281 364.046875 79.15625 364.753906 C 79.582031 364.777344 79.988281 364.941406 80.3125 365.214844 C 80.488281 365.4375 80.609375 365.695312 80.671875 365.96875 C 81.929688 370.691406 80.773438 375.730469 77.582031 379.429688 Z M 77.582031 379.429688 "/>
<use xlink:href="#surface18" mask="url(#mask4)"/>
<path style=" stroke:none;fill-rule:nonzero;fill:rgb(98.431373%,74.509804%,74.509804%);fill-opacity:1;" d="M 184.59375 365.214844 C 188.84375 365.101562 193.613281 364.886719 196.734375 367.75 C 199.710938 370.460938 200.105469 374.925781 200.300781 378.949219 L 200.527344 383.617188 C 200.59375 385.039062 200.652344 386.511719 200.082031 387.828125 C 199.0625 390.144531 196.273438 391.261719 193.722656 391.128906 C 191.171875 390.996094 188.832031 389.878906 186.503906 388.871094 C 180.179688 386.144531 173.59375 384.066406 166.851562 382.675781 C 167.070312 379.445312 167.433594 376.230469 167.949219 373.035156 C 168.300781 370.816406 168.359375 367.109375 169.839844 365.269531 C 171.40625 363.324219 173.445312 364.378906 175.570312 364.738281 C 178.558594 365.191406 181.578125 365.351562 184.59375 365.214844 Z M 184.59375 365.214844 "/>
<path style=" stroke:none;fill-rule:nonzero;fill:rgb(27.45098%,26.27451%,32.54902%);fill-opacity:1;" d="M 72.316406 318.292969 C 72.316406 318.875 71.410156 318.292969 71.328125 317.675781 C 70.695312 312.992188 66.984375 309.132812 62.660156 307.257812 C 58.335938 305.386719 53.410156 305.285156 48.726562 305.730469 C 41.648438 306.402344 33.699219 309.117188 31.109375 315.742188 C 30.496094 317.292969 30.21875 318.972656 29.46875 320.457031 C 28.636719 322.089844 27.277344 323.390625 26.375 324.976562 C 24.820312 327.71875 24.757812 331.082031 25.316406 334.183594 C 26.828125 342.457031 32.480469 349.535156 39.328125 354.4375 C 46.179688 359.335938 54.183594 362.265625 62.167969 364.902344 C 83.277344 371.875 104.933594 377.050781 126.90625 380.382812 C 130.46875 380.921875 134.0625 381.417969 137.472656 382.5625 C 140.527344 383.589844 143.382812 385.121094 146.363281 386.324219 C 153.300781 389.113281 160.761719 390.109375 168.15625 391.085938 C 169.417969 391.25 170.859375 391.367188 171.792969 390.507812 C 172.996094 389.390625 172.59375 387.449219 172.253906 385.84375 C 171 379.75 172.050781 373.40625 175.207031 368.046875 C 176.445312 365.964844 178.050781 363.828125 177.820312 361.414062 C 177.542969 358.601562 174.746094 356.613281 171.960938 356.160156 C 169.171875 355.710938 166.339844 356.375 163.542969 356.738281 C 162.578125 356.867188 161.527344 356.949219 160.683594 356.457031 C 160.265625 356.175781 159.890625 355.839844 159.5625 355.460938 C 155.605469 351.640625 149.644531 350.808594 144.796875 353.394531 C 143.761719 353.972656 142.195312 352.683594 141.121094 352.195312 L 128.964844 346.6875 C 115 340.363281 100.964844 334.011719 86.191406 330.007812 C 85.011719 329.773438 83.890625 329.308594 82.894531 328.636719 C 82.160156 328.054688 81.636719 327.269531 80.960938 326.625 C 79.484375 325.230469 77.433594 324.675781 75.664062 323.6875 C 73.894531 322.699219 71.914062 320.277344 72.316406 318.292969 Z M 72.316406 318.292969 "/>
<path style=" stroke:none;fill-rule:nonzero;fill:rgb(24.705882%,23.921569%,33.72549%);fill-opacity:1;" d="M 259.722656 393.917969 C 257.78125 397.523438 254.011719 399.765625 249.964844 400.691406 C 248.949219 400.921875 247.917969 401.070312 246.878906 401.132812 C 241.761719 401.453125 236.710938 400.035156 231.78125 398.632812 L 225.085938 396.746094 C 223.9375 396.382812 222.757812 396.121094 221.5625 395.960938 C 219.933594 395.851562 218.296875 395.90625 216.683594 396.128906 C 208.769531 396.863281 200.796875 396.507812 192.984375 395.0625 C 192.328125 394.992188 191.703125 394.769531 191.148438 394.410156 C 190.667969 393.9375 190.238281 393.410156 189.871094 392.839844 C 188.050781 390.648438 186.09375 389.371094 188.25 386.476562 C 189.492188 384.796875 191.796875 383.957031 192.761719 382.03125 C 193.726562 380.105469 193.109375 377.367188 192.539062 375.378906 C 191.757812 372.628906 189.191406 371.441406 188.273438 368.921875 C 187.582031 367.015625 188.738281 364.804688 190.480469 363.769531 C 192.21875 362.734375 194.371094 362.652344 196.375 362.917969 C 198.382812 363.1875 200.347656 363.753906 202.363281 363.910156 C 208.292969 364.382812 214.359375 361.324219 220.050781 363.046875 C 221.304688 363.429688 222.492188 364.035156 223.761719 364.371094 C 226.242188 364.925781 228.832031 364.703125 231.179688 363.730469 C 232.011719 363.417969 232.828125 363.039062 233.636719 362.671875 C 235.195312 361.855469 236.859375 361.257812 238.578125 360.882812 C 244.132812 359.929688 249.285156 363.777344 253.472656 367.53125 C 254.914062 368.726562 256.1875 370.109375 257.261719 371.640625 C 258.417969 373.445312 259.027344 375.546875 259.570312 377.617188 C 261.105469 382.96875 262.371094 389 259.722656 393.917969 Z M 259.722656 393.917969 "/>
<use xlink:href="#surface21" mask="url(#mask5)"/>
<path style=" stroke:none;fill-rule:nonzero;fill:rgb(39.607843%,24.313725%,41.960784%);fill-opacity:1;" d="M 47.460938 215.40625 C 46.898438 215.996094 46.460938 216.695312 46.179688 217.460938 C 41.507812 228 38.746094 239.292969 38.027344 250.800781 C 38.042969 251.363281 37.914062 251.917969 37.652344 252.414062 C 37.398438 252.746094 37.113281 253.054688 36.804688 253.335938 C 36.234375 254.011719 35.96875 254.890625 36.074219 255.769531 C 36.175781 256.644531 36.636719 257.441406 37.347656 257.964844 C 38.300781 256.164062 40.582031 255.582031 42.613281 255.425781 C 52.328125 254.65625 61.820312 259.179688 71.566406 258.839844 C 70.878906 256.460938 69.890625 254.175781 69.328125 251.769531 C 66.851562 241.082031 73.035156 229.445312 69.242188 219.148438 C 68.484375 217.089844 67.21875 215.066406 65.226562 214.160156 C 64.398438 213.828125 63.535156 213.597656 62.652344 213.480469 C 60.191406 213.035156 55.289062 211.128906 52.90625 211.894531 C 52.027344 212.175781 51.683594 213.003906 50.953125 213.503906 C 49.851562 214.214844 48.382812 214.472656 47.460938 215.40625 Z M 47.460938 215.40625 "/>
<path style=" stroke:none;fill-rule:nonzero;fill:rgb(24.705882%,23.921569%,33.72549%);fill-opacity:1;" d="M 72.566406 236.46875 L 192.253906 236.46875 C 194.796875 236.46875 196.859375 238.535156 196.859375 241.082031 L 196.859375 314.023438 C 196.859375 316.570312 194.796875 318.636719 192.253906 318.636719 L 72.566406 318.636719 C 70.023438 318.636719 67.960938 316.570312 67.960938 314.023438 L 67.960938 241.082031 C 67.960938 238.535156 70.023438 236.46875 72.566406 236.46875 Z M 72.566406 236.46875 "/>
<path style=" stroke:none;fill-rule:nonzero;fill:rgb(100%,100%,100%);fill-opacity:1;" d="M 135.589844 277.550781 C 135.589844 279.46875 134.035156 281.023438 132.121094 281.023438 C 130.207031 281.023438 128.652344 279.46875 128.652344 277.550781 C 128.652344 275.632812 130.207031 274.082031 132.121094 274.082031 C 134.035156 274.082031 135.589844 275.632812 135.589844 277.550781 Z M 135.589844 277.550781 "/>
<path style=" stroke:none;fill-rule:nonzero;fill:rgb(24.705882%,23.921569%,33.72549%);fill-opacity:1;" d="M 85.140625 113.125 C 83.195312 114.53125 81.867188 116.550781 80.515625 118.488281 C 78.023438 122.070312 75.203125 125.648438 71.21875 127.644531 C 69.710938 128.402344 67.988281 128.972656 66.988281 130.292969 C 66.394531 131.183594 66.007812 132.199219 65.859375 133.261719 C 65.097656 136.996094 64.699219 140.792969 64.671875 144.601562 C 64.671875 146.5 64.75 148.457031 65.589844 150.179688 C 66.382812 151.800781 67.808594 153.171875 68.105469 154.9375 C 68.328125 156.316406 67.820312 157.6875 67.640625 159.070312 C 67.460938 160.453125 67.773438 162.089844 69.050781 162.75 C 69.742188 163.007812 70.460938 163.175781 71.191406 163.253906 C 75.035156 164.109375 76.324219 168.621094 76.90625 172.355469 C 78.214844 172.28125 78.804688 170.78125 79.074219 169.558594 L 83.082031 151.730469 C 83.515625 149.800781 84.238281 147.558594 86.160156 146.882812 C 87.449219 146.4375 88.859375 146.855469 90.207031 146.96875 C 95.496094 147.402344 99.972656 143.3125 105.144531 142.183594 C 106.800781 141.851562 108.492188 141.738281 110.179688 141.847656 C 114.261719 142.050781 119.003906 143.730469 119.871094 147.542969 C 120.015625 148.160156 120.105469 148.902344 120.683594 149.210938 C 121.261719 149.515625 121.867188 149.253906 122.472656 149.210938 C 125.0625 148.949219 126.589844 151.863281 127.335938 154.25 L 130.050781 162.929688 C 130.457031 164.242188 131.140625 165.789062 132.5625 165.953125 C 133.871094 166.117188 134.988281 164.871094 135.183594 163.640625 C 135.382812 162.40625 134.953125 161.128906 134.671875 159.890625 C 133.394531 154.191406 135.347656 148.359375 136.539062 142.648438 C 137.726562 136.9375 137.941406 130.375 133.949219 125.976562 C 132.496094 124.386719 130.589844 123.199219 129.238281 121.519531 C 127.976562 119.945312 127.265625 118.015625 125.960938 116.46875 C 122.347656 112.203125 113.082031 108.914062 107.398438 108.367188 C 100.90625 107.664062 90.386719 109.3125 85.140625 113.125 Z M 85.140625 113.125 "/>
<use xlink:href="#surface24" mask="url(#mask6)"/>
<use xlink:href="#surface27" mask="url(#mask7)"/>
<use xlink:href="#surface30" mask="url(#mask8)"/>
<use xlink:href="#surface33" mask="url(#mask9)"/>
</g>
</svg>
